<?xml version="1.0" encoding="UTF-8" standalone="no"?>
<svg
   xmlns:dc="http://purl.org/dc/elements/1.1/"
   xmlns:cc="http://creativecommons.org/ns#"
   xmlns:rdf="http://www.w3.org/1999/02/22-rdf-syntax-ns#"
   xmlns:svg="http://www.w3.org/2000/svg"
   xmlns="http://www.w3.org/2000/svg"
   version="1.1"
   id="svg2"
   width="517.44"
   height="192.64"
   viewBox="0 0 517.44 192.64">
  <metadata
     id="metadata8">
    <rdf:RDF>
      <cc:Work
         rdf:about="">
        <dc:format>image/svg+xml</dc:format>
        <dc:type
           rdf:resource="http://purl.org/dc/dcmitype/StillImage" />
        <dc:title></dc:title>
      </cc:Work>
    </rdf:RDF>
  </metadata>
  <defs
     id="defs6" />
  <g
     id="g10">
    <path
       style="fill:#ffffff;stroke-width:0.32"
       d="m 55.96714,192.07994 c 3.88788,-7.03102 52.87593,-91.43037 53.05598,-91.40779 0.21974,0.0275 42.65688,73.24961 42.65688,73.60121 0,0.0696 -13.836,0.12658 -30.74667,0.12658 -17.92924,0 -30.70219,-0.11924 -30.63999,-0.28603 0.0587,-0.15731 1.25866,-2.31161 2.66666,-4.78732 l 2.56,-4.50129 15.69957,-0.0927 15.69958,-0.0927 -10.25958,-17.82718 c -5.64276,-9.80494 -10.35122,-17.83294 -10.46325,-17.84 -0.11202,-0.007 -8.46402,14.31222 -18.55999,31.8206 L 69.28,192.62677 l -6.81125,0.007 c -6.39262,0.006 -6.79223,-0.0278 -6.50161,-0.55341 z m 110.6514,0.32 C 150.74613,165.03887 112.64,98.796653 112.64,98.565733 c 0,-0.21943 13.94979,-0.32579 42.72822,-0.32579 h 42.72823 l -0.46234,0.88 c -1.80429,3.434257 -30.17623,52.230827 -30.41219,52.305567 -0.42697,0.13526 -5.69036,-9.05427 -5.52689,-9.64958 0.0749,-0.2728 3.54018,-6.3824 7.70059,-13.57691 4.16041,-7.1945 7.56438,-13.1345 7.56438,-13.2 0,-0.0655 -9.3034,-0.11908 -20.67424,-0.11908 -16.4876,0 -20.64292,0.0816 -20.51962,0.40291 0.085,0.2216 10.10844,17.64005 22.27423,38.70766 12.1658,21.06761 22.11963,38.3823 22.11963,38.47709 0,0.26909 -13.3849,0.20222 -13.54146,-0.0677 z M 62.49028,172.08767 C 62.03939,171.51483 32,119.42011 32,119.21102 c 0,-0.0941 2.556,-0.16582 5.68,-0.1594 l 5.68,0.0117 7.68,13.40121 c 5.66735,9.88924 7.77155,13.30349 8.02932,13.02832 0.43189,-0.46107 20.29068,-34.91662 20.29068,-35.20491 0,-0.1144 -17.856,-0.208 -39.68,-0.208 H 0 v -5.92 -5.919997 h 52.81126 52.81126 l -0.38059,0.72 c -0.39029,0.73837 -42.23359,73.289477 -42.36042,73.447727 -0.0387,0.0483 -0.21472,-0.0957 -0.39123,-0.32 z m 302.80807,-0.867 c -1.51002,-0.31122 -3.05834,-1.88586 -3.05834,-3.11035 0,-0.82468 0.0298,-0.83601 1.68,-0.64063 1.03725,0.12281 1.83382,0.40921 2.08208,0.74858 0.48314,0.66048 2.35235,0.73704 3.08803,0.12649 0.28842,-0.23938 0.50989,-0.90862 0.50989,-1.5408 0,-1.11433 -0.003,-1.1161 -0.78874,-0.60082 -1.17913,0.77259 -3.71936,0.67853 -4.80832,-0.17805 -2.84147,-2.2351 -2.70931,-8.39234 0.21847,-10.17734 1.35206,-0.82434 3.31731,-0.82912 4.65859,-0.0113 0.84861,0.5174 1.04,0.54662 1.04,0.1588 0,-0.34998 0.37968,-0.47529 1.44,-0.47529 h 1.44 v 6.25028 c 0,6.96139 -0.2336,8.07765 -1.86723,8.92243 -1.18749,0.61406 -3.95744,0.87365 -5.63443,0.52801 z m 3.51622,-7.84619 c 1.61837,-1.61836 0.68042,-5.61454 -1.31779,-5.61454 -1.58096,0 -2.63312,1.8932 -2.23415,4.01995 0.42336,2.25675 2.12557,3.02094 3.55194,1.59459 z m -177.9617,3.21061 c -1.06697,-0.46455 -2.37287,-1.91657 -2.37287,-2.63835 0,-0.49275 0.24941,-0.60583 1.96082,-0.88901 0.98185,-0.16247 1.18674,-0.0929 1.32903,0.45121 0.35996,1.37647 3.59016,1.54617 3.59016,0.18862 0,-0.43631 -0.59539,-0.74078 -2.55234,-1.30523 -3.0044,-0.86655 -4.00767,-1.77254 -4.00767,-3.61903 0,-2.34708 1.67076,-3.57406 4.86412,-3.57216 2.27885,0.001 3.86301,0.73757 4.4744,2.07942 0.44082,0.96751 0.33173,1.09877 -1.20051,1.44434 -1.01932,0.2299 -1.27292,0.16993 -1.74459,-0.41256 -0.3889,-0.48028 -0.88827,-0.67202 -1.69096,-0.64926 -2.7194,0.0771 -2.13452,1.0746 1.09398,1.86579 1.27154,0.3116 2.65726,0.89415 3.18673,1.33966 0.79049,0.66516 0.93684,1.02268 0.93684,2.28865 0,1.78558 -0.63548,2.81982 -2.11154,3.43656 -1.34351,0.56136 -4.4572,0.55667 -5.7556,-0.009 z m 11.08265,-0.16964 c -0.58742,-0.58742 -0.65551,-1.05207 -0.65551,-4.47325 0,-3.71551 -0.0193,-3.82049 -0.72,-3.92 -0.57835,-0.0821 -0.73954,-0.33835 -0.81932,-1.30226 -0.091,-1.10007 -0.0311,-1.2 0.72,-1.2 0.73372,0 0.81932,-0.12562 0.81932,-1.20233 0,-1.08439 0.14253,-1.28842 1.45304,-2.08 0.79917,-0.48272 1.51917,-0.87767 1.6,-0.87767 0.0808,0 0.14696,0.936 0.14696,2.08 v 2.08 h 0.96 c 0.90667,0 0.96,0.0711 0.96,1.28 0,1.21228 -0.0514,1.28 -0.97159,1.28 h -0.97158 l 0.0916,3.12 0.0916,3.12 0.89964,-0.10548 c 0.87653,-0.10276 0.89709,-0.0699 0.8,1.28 l -0.0996,1.38548 -1.82449,0.0955 c -1.49251,0.0781 -1.94377,-0.0238 -2.48,-0.56 z m 12.8,0 c -0.58785,-0.58785 -0.65551,-1.0519 -0.65551,-4.49551 v -3.84 h -0.8 c -0.72,0 -0.8,-0.128 -0.8,-1.28 0,-1.152 0.08,-1.28 0.8,-1.28 0.71101,0 0.80006,-0.13348 0.80057,-1.2 6.4e-4,-1.06787 0.15395,-1.2969 1.39356,-2.08 0.76614,-0.484 1.48588,-0.88 1.59943,-0.88 0.11354,0 0.20644,0.936 0.20644,2.08 v 2.08 h 0.96 c 0.90667,0 0.96,0.0711 0.96,1.28 0,1.21228 -0.0514,1.28 -0.97159,1.28 h -0.97158 l 0.0916,3.12 0.0916,3.12 0.89964,-0.10548 c 0.87653,-0.10276 0.89709,-0.0699 0.8,1.28 l -0.0996,1.38548 -1.82449,0.0955 c -1.49251,0.0781 -1.94377,-0.0238 -2.48,-0.56 z m 7.69971,0.19639 c -1.40071,-0.81017 -1.61176,-1.65909 -1.62388,-6.5319 l -0.0113,-4.56 h 1.6 1.6 v 4.096 c 0,4.41013 0.15064,4.864 1.6144,4.864 1.65524,0 2.05349,-0.94177 2.17931,-5.15351 l 0.1137,-3.80649 h 1.5663 1.56629 v 5.6 5.6 h -1.6 c -1.27548,0 -1.6,-0.10741 -1.6,-0.5296 0,-0.4749 -0.0666,-0.46932 -0.64496,0.0541 -0.83438,0.7551 -3.70626,0.97679 -4.75982,0.36741 z m 12.08074,-0.18321 c -0.70439,-0.57038 -0.76258,-0.87036 -0.86915,-4.48 -0.10462,-3.54348 -0.16519,-3.86869 -0.72052,-3.86869 -0.49401,0 -0.60629,-0.23705 -0.60629,-1.28 0,-1.06667 0.10667,-1.28 0.64,-1.28 0.51803,0 0.64,-0.21333 0.64,-1.11941 0,-0.98911 0.17693,-1.22971 1.52,-2.06699 l 1.52,-0.94757 0.0946,2.06698 c 0.0941,2.05487 0.10017,2.06699 1.04,2.06699 0.88961,0 0.94538,0.0755 0.94538,1.28 0,1.20889 -0.0533,1.28 -0.96,1.28 h -0.96 v 2.86111 c 0,2.96932 0.15985,3.34318 1.43962,3.36698 0.49141,0.009 0.66451,0.26465 0.74412,1.09835 0.12697,1.32974 -0.27317,1.62221 -2.22829,1.62866 -0.99028,0.003 -1.7359,-0.19863 -2.23949,-0.60641 z m 8.50817,0.17854 c -1.32515,-0.60075 -2.63385,-2.22722 -2.88979,-3.59148 -0.34125,-1.81898 0.0138,-4.55294 0.71286,-5.48925 1.3068,-1.75031 2.21981,-2.1665 4.7528,-2.1665 1.8775,0 2.53167,0.13334 3.23676,0.65977 3.41648,2.55077 3.43645,7.65954 0.0398,10.17586 -1.11512,0.82611 -4.42464,1.05887 -5.85242,0.4116 z m 3.47691,-2.4995 c 1.12779,-0.60067 1.47796,-1.29037 1.48878,-2.93234 0.008,-1.28795 -0.14525,-1.70006 -0.92521,-2.48 -0.51446,-0.51447 -1.17353,-0.93539 -1.46461,-0.93539 -0.29108,0 -0.95015,0.42092 -1.46461,0.93539 -0.76586,0.76585 -0.93539,1.20529 -0.93539,2.42461 0,1.21932 0.16953,1.65876 0.93539,2.42461 1.03547,1.03548 1.34184,1.1084 2.36565,0.56312 z m 15.32878,2.40008 c -0.5776,-0.28468 -1.3696,-0.9654 -1.76,-1.51271 -0.6673,-0.93549 -0.71602,-1.38329 -0.81341,-7.4751 l -0.10358,-6.48 h 1.62358 1.62359 v 5.42494 c 0,3.29429 0.13954,5.7312 0.35529,6.20472 0.68038,1.49327 3.13616,1.97406 4.48926,0.87889 0.73688,-0.59642 0.75817,-0.75764 0.86597,-6.56 l 0.11052,-5.94855 h 1.59307 1.59306 l -0.10358,6.53745 c -0.11572,7.30278 -0.23851,7.73546 -2.52634,8.90205 -1.45073,0.73975 -5.47077,0.75613 -6.94743,0.0283 z m 46.31122,-0.33287 c -1.38285,-1.16359 -1.90104,-2.54147 -1.90104,-5.05494 0,-3.67158 1.35132,-5.57781 4.14435,-5.84618 1.15139,-0.11064 1.82971,-0.007 2.39919,0.36597 0.43667,0.28611 0.87101,0.52021 0.9652,0.52021 0.0942,0 0.17126,-1.152 0.17126,-2.56 v -2.56 h 1.6 1.6 v 7.84 7.84 h -1.57333 c -0.93039,0 -1.62512,-0.15535 -1.70005,-0.38014 -0.0899,-0.26959 -0.35096,-0.22307 -0.89787,0.16 -1.24546,0.87235 -3.57167,0.71514 -4.80771,-0.32492 z m 4.80111,-2.31709 c 1.29859,-1.29859 1.10998,-5.0221 -0.29239,-5.77263 -1.78179,-0.95358 -3.20976,0.39655 -3.20976,3.03478 0,2.8262 1.91597,4.32403 3.50215,2.73785 z m 8.33286,2.59847 c -1.76391,-0.92336 -2.61877,-2.88762 -2.48942,-5.72009 0.11694,-2.56061 0.62968,-3.54484 2.52382,-4.84455 0.91043,-0.62469 1.39529,-0.727 2.93488,-0.61927 2.99747,0.20974 4.44224,1.76887 4.89974,5.28759 l 0.21843,1.68 h -3.72124 c -2.04666,0 -3.72122,0.12458 -3.72122,0.27684 0,0.15227 0.30464,0.66415 0.67699,1.13752 0.82583,1.04987 2.47114,1.05797 2.99571,0.0147 0.28589,-0.56854 0.50493,-0.6203 1.73149,-0.40914 0.77229,0.13296 1.48848,0.32603 1.59149,0.42903 0.3384,0.33842 -0.75085,1.88226 -1.85123,2.6238 -1.37907,0.92936 -4.15671,0.99822 -5.78944,0.14353 z m 4.5863,-7.01632 c -0.34646,-0.97697 -1.13641,-1.68 -1.88768,-1.68 -0.67267,0 -2.05363,1.32013 -2.05363,1.96316 0,0.15226 0.93149,0.27684 2.06995,0.27684 1.83373,0 2.0473,-0.0639 1.87136,-0.56 z m 13.48282,7.14989 c -1.31591,-0.57317 -2.63223,-2.20128 -2.88979,-3.57423 -0.11616,-0.61903 -0.129,-1.20768 -0.0285,-1.30811 0.10041,-0.10043 0.83769,-0.25644 1.6384,-0.34669 1.22326,-0.13788 1.4558,-0.0768 1.4558,0.38214 0,0.30043 0.42093,0.96715 0.9354,1.48161 0.71027,0.71028 1.23222,0.93539 2.1688,0.93539 1.53529,0 2.6558,-0.74709 2.6558,-1.77077 0,-0.97739 -0.80656,-1.48518 -3.73872,-2.35377 -2.73091,-0.80898 -4.13196,-1.88688 -4.57078,-3.51647 -0.56256,-2.08926 0.34582,-4.0249 2.38339,-5.07856 1.27482,-0.65923 4.78048,-0.65514 6.31911,0.007 1.34316,0.57835 2.484,2.19025 2.48582,3.5122 0,0.83694 -0.0732,0.8799 -1.51882,0.87797 -1.35248,-0.002 -1.58006,-0.10759 -2.06512,-0.96 -0.53971,-0.94848 -1.095,-1.1428 -2.81107,-0.98368 -1.0263,0.0951 -1.60381,0.58532 -1.60381,1.36122 0,0.68764 1.09901,1.23404 3.70685,1.84296 4.16736,0.97306 5.85511,3.76498 4.34279,7.18388 -0.52551,1.18797 -0.94532,1.62514 -2.03584,2.12008 -1.63053,0.74004 -5.32804,0.84152 -6.82967,0.18746 z m 13.37785,-0.0762 c -1.44316,-0.71146 -2.35171,-2.33234 -2.55328,-4.55511 -0.37433,-4.12816 1.68378,-6.7586 5.2881,-6.7586 2.85568,0 4.66701,1.92882 5.07914,5.40861 l 0.19321,1.63139 h -3.72457 c -2.04852,0 -3.72458,0.12458 -3.72458,0.27684 0,0.15227 0.30464,0.66415 0.67699,1.13752 0.51645,0.65653 0.90727,0.83754 1.64775,0.76315 0.764,-0.0767 1.63587,-0.82172 1.67932,-1.43491 0.003,-0.0316 0.68624,0.0881 1.52,0.26591 0.85306,0.18194 1.51594,0.50301 1.51594,0.73425 0,0.63849 -1.23882,2.05951 -2.25235,2.58363 -1.20023,0.62066 -4.03651,0.5927 -5.34567,-0.0527 z m 4.71802,-6.79055 c 0,-0.64303 -1.38096,-1.96316 -2.05363,-1.96316 -0.75127,0 -1.54122,0.70303 -1.88768,1.68 -0.17594,0.49609 0.0376,0.56 1.87136,0.56 1.13846,0 2.06995,-0.12458 2.06995,-0.27684 z m 19.55523,6.88874 c -1.40073,-0.81017 -1.61177,-1.65909 -1.6239,-6.5319 l -0.0113,-4.56 h 1.6 1.6 v 4.096 c 0,4.41013 0.15066,4.864 1.6144,4.864 1.65523,0 2.0535,-0.94177 2.1793,-5.15351 l 0.11372,-3.80649 h 1.56628 1.5663 v 5.6 5.6 h -1.60003 c -1.27549,0 -1.6,-0.10741 -1.6,-0.5296 0,-0.4749 -0.0666,-0.46932 -0.64496,0.0541 -0.83437,0.7551 -3.70627,0.97679 -4.75981,0.36741 z m 26.53782,-0.41002 c -1.51719,-1.27664 -2.00532,-2.49824 -2.02077,-5.05756 -0.0157,-2.56689 0.47446,-3.80507 2.02077,-5.1062 1.29292,-1.08793 3.63676,-1.17152 4.90377,-0.17489 l 0.84317,0.66322 v -2.7432 -2.74323 h 1.6 1.6 v 7.84 7.84 h -1.6 c -1.2417,0 -1.6,-0.11269 -1.6,-0.50323 0,-0.41715 -0.14422,-0.38978 -0.84317,0.16 -1.26701,0.99663 -3.61085,0.91304 -4.90377,-0.17489 z m 4.6966,-2.44188 c 0.88922,-0.96824 1.16359,-2.47104 0.73901,-4.04778 -0.90077,-3.34522 -4.16867,-2.24164 -4.16867,1.4078 0,2.86735 1.88694,4.31984 3.42966,2.64 z m 7.48557,2.83344 c -1.53673,-0.85175 -2.05926,-2.92526 -1.17033,-4.64426 0.50403,-0.97465 1.24876,-1.34889 4.12617,-2.07348 2.19603,-0.553 2.37869,-0.68687 1.92535,-1.41105 -0.52701,-0.84184 -2.17741,-0.87003 -2.94119,-0.0502 -0.53971,0.57933 -0.85376,0.65505 -1.94931,0.46996 -1.4527,-0.24544 -1.52618,-0.41025 -0.80467,-1.80548 0.63014,-1.21855 2.1768,-1.8789 4.40073,-1.8789 4.02695,0 4.69802,0.88609 4.69802,6.20328 0,2.02128 0.14045,4.04443 0.31206,4.49589 0.30864,0.81177 0.29482,0.82083 -1.25331,0.82083 -0.88099,0 -1.61821,-0.1584 -1.68617,-0.3623 -0.0835,-0.25051 -0.43242,-0.20114 -1.13079,0.16 -1.20921,0.62531 -3.46688,0.66308 -4.52656,0.0757 z m 3.90579,-2.16134 c 0.92445,-0.48659 1.1682,-0.89311 1.17408,-1.9582 0.004,-0.80375 -0.0769,-0.86703 -0.8751,-0.68094 -2.35293,0.54853 -3.16006,1.48128 -2.15312,2.4882 0.6159,0.6159 0.92326,0.64092 1.85414,0.15094 z m 8.60039,1.96009 c -1.44675,-0.88205 -2.28557,-2.84258 -2.29437,-5.36247 -0.0125,-3.54673 1.36931,-5.48993 4.08954,-5.75131 1.06531,-0.10237 1.87753,0.0159 2.57043,0.37419 l 1.01299,0.52386 v -2.56822 -2.56822 h 1.6 1.6 v 7.84 7.84 h -1.44 c -1.06032,0 -1.44,-0.12532 -1.44,-0.4753 0,-0.38782 -0.19139,-0.35859 -1.04,0.15881 -1.34128,0.8178 -3.30653,0.81302 -4.65859,-0.0113 z m 4.41046,-2.54405 c 0.81063,-0.81064 1.09143,-1.95724 0.87479,-3.57231 -0.33405,-2.49048 -2.37757,-3.3808 -3.75469,-1.63583 -0.97104,1.23041 -0.78768,4.3609 0.30736,5.24759 0.94339,0.76392 1.78201,0.75106 2.57254,-0.0394 z m 8.41011,2.66557 c -1.55059,-0.76442 -2.38748,-2.36069 -2.55017,-4.86414 -0.11539,-1.77573 -0.015,-2.36841 0.60489,-3.56699 1.01764,-1.96794 2.47191,-2.88258 4.5833,-2.88258 2.95613,0 4.75443,1.81846 5.15315,5.21086 l 0.21498,1.82914 h -3.69411 c -3.49536,0 -3.68538,0.0333 -3.53216,0.61928 0.41984,1.60543 2.69404,2.15026 3.42585,0.82072 0.19376,-0.352 0.35411,-0.66583 0.35635,-0.6974 0.003,-0.0316 0.68624,0.0881 1.52,0.26591 0.85306,0.18194 1.51594,0.50301 1.51594,0.73425 0,0.63849 -1.23882,2.05951 -2.25235,2.58363 -1.20023,0.62066 -4.03651,0.5927 -5.34567,-0.0527 z m 4.71802,-6.79055 c 0,-0.64303 -1.38096,-1.96316 -2.05363,-1.96316 -0.75127,0 -1.54122,0.70303 -1.88768,1.68 -0.17594,0.49609 0.0376,0.56 1.87136,0.56 1.13846,0 2.06995,-0.12458 2.06995,-0.27684 z m 13.44659,6.95971 c -1.12656,-0.44947 -1.90256,-1.22235 -2.60064,-2.59012 -0.88998,-1.74378 -0.79478,-2.37498 0.39405,-2.61275 1.75357,-0.35072 2.17686,-0.24355 2.38986,0.60506 0.66508,2.64986 5.57014,2.79362 5.57014,0.16326 0,-0.98308 -0.23072,-1.10867 -4.48,-2.43888 -1.03126,-0.32283 -2.19062,-0.98044 -2.8,-1.5882 -0.91994,-0.9175 -1.04,-1.23913 -1.04,-2.78608 0,-3.06371 1.79654,-4.49739 5.6391,-4.50017 3.32983,-0.003 5.03373,1.20317 5.6888,4.02501 0.20304,0.87468 0.19408,0.87999 -1.48179,0.87798 -1.51846,-0.002 -1.73773,-0.0928 -2.20534,-0.9149 -0.78922,-1.38752 -3.4256,-1.58092 -4.2272,-0.3101 -0.58967,0.93481 0.0366,1.42708 2.9143,2.29071 1.58045,0.4743 3.25408,1.16172 3.71923,1.52759 2.63386,2.07181 2.29863,6.19848 -0.64041,7.88346 -0.99565,0.5708 -1.72999,0.71171 -3.64669,0.69971 -1.32,-0.008 -2.75702,-0.15747 -3.19341,-0.33158 z m 13.91341,-0.0946 c -2.05459,-0.91318 -3.04,-2.69658 -3.04,-5.50186 0,-3.35282 1.89078,-5.56519 4.97482,-5.82095 2.18364,-0.18108 3.72668,0.35564 4.91571,1.70987 2.48166,2.82644 1.90393,7.22814 -1.22547,9.33704 -1.25517,0.84587 -4.03578,0.98225 -5.62506,0.2759 z m 4.4,-3.11738 c 0.564,-0.66654 0.77677,-3.17366 0.36122,-4.25656 -0.27764,-0.72353 -1.94922,-1.52667 -2.68887,-1.29191 -1.1008,0.34937 -1.91235,1.73512 -1.91235,3.26534 0,1.15536 0.18122,1.60268 0.96806,2.38951 0.77597,0.77599 1.14106,0.92712 1.84,0.76174 0.47956,-0.11347 1.12394,-0.50412 1.43194,-0.86812 z m 7.91501,2.98542 c -3.42595,-1.79339 -3.42067,-8.8238 0.008,-10.66261 1.52019,-0.81529 4.30611,-0.79308 5.68115,0.0453 1.02762,0.62655 2.30301,2.68055 1.90902,3.07451 -0.3774,0.3774 -3.11315,0.54521 -3.11315,0.19096 0,-0.18631 -0.22627,-0.56504 -0.50285,-0.84161 -1.32156,-1.32156 -3.33715,0.18946 -3.33715,2.50176 0,1.82144 0.42455,2.93756 1.2945,3.40313 1.01273,0.54201 2.08864,0.13524 2.54288,-0.9614 0.37491,-0.90512 0.47629,-0.95009 1.72051,-0.76316 0.72717,0.10925 1.44746,0.31277 1.60064,0.45225 0.46208,0.42076 -0.84266,2.64557 -2.00586,3.42034 -1.39014,0.92592 -4.16867,0.99327 -5.79766,0.14054 z m 15.66038,-0.35171 c -0.76403,-0.76403 -0.93539,-1.20634 -0.93539,-2.41454 0,-2.32006 0.74339,-2.87741 5.36,-4.01857 0.748,-0.18489 1.36,-0.51782 1.36,-0.73983 0,-1.26907 -2.48746,-1.64532 -3.25315,-0.49209 -0.38896,0.58577 -0.63731,0.64815 -1.79904,0.45188 -0.74128,-0.12525 -1.34781,-0.36621 -1.34781,-0.53548 0,-0.84715 1.1217,-2.2962 2.09098,-2.70119 1.44659,-0.60442 4.4328,-0.57792 5.75836,0.0511 1.43261,0.67981 1.75066,1.75553 1.75066,5.92103 0,1.89828 0.14045,3.82079 0.31206,4.27225 0.30877,0.81212 0.2954,0.82083 -1.26108,0.82083 -0.86528,0 -1.66189,-0.14347 -1.77024,-0.31883 -0.12429,-0.2011 -0.53898,-0.14201 -1.12301,0.16 -0.50928,0.26336 -1.66416,0.47883 -2.56647,0.47883 -1.38652,0 -1.78531,-0.14482 -2.57587,-0.93539 z m 4.94144,-1.96784 c 0.57005,-0.44839 0.84317,-0.96864 0.84317,-1.60609 0,-0.86499 -0.0727,-0.92593 -0.88,-0.73772 -2.3544,0.54888 -3.31962,1.71868 -2.13363,2.58589 0.78774,0.57602 1.18704,0.53149 2.17046,-0.24208 z M 170.88,158.87994 v -7.84 h 1.6 1.6 v 7.84 7.84 h -1.6 -1.6 z m 5.76,2.24 v -5.6 h 1.44 c 1.06033,0 1.44,0.12532 1.44,0.4753 0,0.38782 0.19141,0.35859 1.04,-0.15881 1.62493,-0.99074 3.81558,-0.86362 5.11495,0.29681 l 1.04505,0.9333 0.10935,4.8267 0.10935,4.8267 H 185.30935 183.68 v -3.7688 c 0,-2.89315 -0.11574,-3.93404 -0.49814,-4.48 -0.67538,-0.96423 -1.86237,-0.90575 -2.67863,0.13196 -0.58261,0.74066 -0.66323,1.28524 -0.66323,4.48 v 3.63684 h -1.6 -1.6 z m 31.36001,0 v -5.6 h 1.6 1.6 v 5.6 5.6 h -1.6 -1.6 z m 66.24,-2.24 v -7.84 h 5.28 5.28 v 1.44 1.44 h -3.52 -3.52 v 1.76 1.76 h 3.04 3.04 v 1.44 1.44 h -3.04 -3.04 v 3.2 3.2 h -1.76 -1.76 z m 16.30261,6.99426 c -0.57662,-1.51663 -5.10261,-14.57828 -5.10261,-14.72573 0,-0.0773 0.81658,-0.0973 1.81463,-0.0445 l 1.81463,0.096 1.81592,5.44 1.81591,5.44 1.79228,-5.44 1.79227,-5.44 1.80407,-0.0968 c 1.75343,-0.0941 1.79761,-0.0761 1.57401,0.64 -0.12653,0.40522 -1.3409,3.90477 -2.6986,7.77677 l -2.46854,7.04 -1.81012,0.096 c -1.71652,0.0911 -1.82737,0.0506 -2.14385,-0.78176 z m 97.29739,-4.75426 v -5.6 h 1.6 c 0.91055,0 1.59999,0.14571 1.59999,0.33814 0,0.18954 0.31258,0.11922 0.7112,-0.16 0.77958,-0.54602 2.39062,-0.65179 3.09885,-0.20343 0.37648,0.23836 0.38457,0.51873 0.0494,1.71576 -0.39392,1.40702 -0.41607,1.42502 -1.32887,1.08047 -0.76125,-0.28734 -1.02489,-0.25378 -1.46515,0.18649 -0.6113,0.61128 -1.00794,2.92657 -1.04208,6.08257 l -0.0234,2.16 h -1.59999 -1.6 z m 8.31999,0 v -5.6 h 1.6 1.6 v 5.6 5.6 h -1.6 -1.6 z m 98.88,0 v -5.6 h 1.6 1.6 v 5.6 5.6 h -1.6 -1.6 z m 17.3543,-2.16 0.0857,-7.76 1.52,-0.0975 1.52,-0.0975 v 7.85754 7.85753 h -1.6057 -1.60569 z m -304.39429,-6.32 v -1.6 h 1.6 1.6 v 1.6 1.6 h -1.6 -1.6 z m 188.15999,0 v -1.6 h 1.6 1.6 v 1.6 1.6 h -1.6 -1.6 z m 98.88,0 v -1.6 h 1.6 1.6 v 1.6 1.6 h -1.6 -1.6 z M 286.70024,98.520823 c -8.84163,-0.7835 -16.03375,-4.290333 -18.40795,-8.975573 -0.76986,-1.51926 -1.67744,-5.86683 -1.3029,-6.24135 0.17863,-0.17863 4.50701,0.17361 9.24934,0.7527 1.44594,0.17656 1.53494,0.2457 1.85722,1.44253 1.12857,4.19118 7.36752,6.64591 15.82406,6.22601 4.32211,-0.2146 7.14023,-0.79666 9.36613,-1.93449 4.14542,-2.11903 5.98857,-5.09187 6.47003,-10.43556 0.16626,-1.84533 0.30714,-3.90742 0.31306,-4.58241 l 0.0108,-1.22725 -1.5557,1.14199 c -1.99954,1.46779 -5.71525,3.21984 -8.3643,3.94395 -3.26561,0.89265 -13.61784,0.78518 -17.12,-0.17774 -7.28535,-2.00309 -12.80258,-6.4215 -15.85052,-12.69369 -1.68016,-3.45752 -2.29104,-6.2703 -2.29779,-10.58006 -0.007,-4.29026 0.77814,-7.67529 2.61623,-11.28363 2.4675,-4.84393 5.61063,-7.87143 10.73208,-10.33725 4.54225,-2.18696 6.81279,-2.62485 13.76,-2.65376 5.41027,-0.0225 6.35491,0.0544 8.57573,0.69804 3.0054,0.87104 5.772,2.22115 8.46427,4.13056 l 2,1.41843 v -2.73616 -2.73617 h 5.14003 5.14003 l -0.12426,24.08 c -0.1183,22.92018 -0.15606,24.22001 -0.78419,26.98694 -0.89795,3.95545 -2.09287,6.25576 -4.50182,8.66634 -5.55052,5.55429 -16.54587,8.229803 -29.20956,7.107603 z M 299.20001,71.81973 c 7.65322,-2.26482 11.51054,-7.83431 11.51054,-16.61979 0,-8.67567 -3.6745,-14.04944 -11.40563,-16.68017 -3.16276,-1.07621 -8.09038,-1.21355 -11.14491,-0.31062 -4.54114,1.34237 -8.56432,4.48765 -10.20697,7.9797 -2.41844,5.14125 -2.29755,13.03715 0.28025,18.306 1.73131,3.53867 6.45922,6.79544 11.1726,7.69615 2.76181,0.52776 7.34295,0.35411 9.79412,-0.37127 z M 20.29052,93.88139 c 0.57114,-1.48838 30.46271,-52.85089 30.6484,-52.66298 0.12041,0.12184 1.39058,2.23609 2.82262,4.69833 1.64357,2.82594 2.55186,4.71398 2.46311,5.12 -0.0773,0.35376 -3.52027,6.4752 -7.65097,13.6032 l -7.51037,12.96 20.47931,0.0824 c 11.26362,0.0453 20.53979,0.0219 20.61371,-0.052 C 82.23023,77.55644 72.27131,60.14009 60.02536,38.92737 47.77941,17.71465 37.76,0.27806 37.76,0.17939 37.76,0.08069 40.76954,0 44.44787,0 h 6.68786 L 77.7866,46.16 c 14.65798,25.388 26.92666,46.628 27.26374,47.2 l 0.61288,1.04 H 62.87738 c -39.31393,0 -42.7697,-0.0421 -42.58686,-0.51855 z m 92.4804,-9.6e-4 c 0.39076,-1.0184 42.27288,-73.39609 42.47264,-73.39827 0.19503,-0.002 30.67644,52.61448 30.67644,52.95327 0,0.0905 -2.556,0.15897 -5.68,0.1522 l -5.68,-0.0123 -7.70842,-13.40768 -7.70842,-13.40767 -10.37943,17.97998 -10.37943,17.97999 61.36786,0.0808 61.36785,0.0808 v 5.75917 5.75919 h -74.27425 c -68.40672,0 -74.25848,-0.0411 -74.07484,-0.51962 z m 213.62909,-5.24049 v -5.76 H 421.92 517.44 v 5.76 5.76 h -95.52 -95.51999 z m -218.03698,2.8 C 107.49923,90.06313 66.24,18.48426 66.24,18.36249 c 0,-0.0674 13.824,-0.12255 30.72,-0.12255 24.3761,0 30.7148,0.0826 30.69482,0.4 -0.0139,0.22 -1.2088,2.416 -2.65545,4.88 l -2.63027,4.48 -15.5882,0.16 -15.58819,0.16 10.21382,17.69721 c 5.61761,9.73346 10.29833,17.72546 10.4016,17.76 0.10327,0.0345 8.46009,-14.26521 18.57071,-31.77721 l 18.38295,-31.84 6.76792,-0.0865 c 4.39444,-0.0561 6.72976,0.0254 6.65911,0.23252 -0.28546,0.83674 -52.93874,91.83898 -53.14144,91.84594 -0.12795,0.004 -0.4359,-0.31601 -0.68435,-0.71201 z M 214.56001,80.45842 c -6.00199,-0.8205 -9.66635,-2.03775 -12.48,-4.14566 -3.59114,-2.69038 -5.09378,-5.54073 -5.07466,-9.62612 0.034,-7.2678 7.22106,-12.6776 18.83466,-14.17714 1.408,-0.1818 5.56149,-0.63097 9.22999,-0.99815 5.66049,-0.56656 10.13736,-1.19306 15.16129,-2.1217 1.27288,-0.23528 1.4946,-0.8466 1.20669,-3.32715 -0.59689,-5.1429 -4.02175,-7.54526 -11.88488,-8.33663 -3.98668,-0.40124 -9.71819,0.06 -12.45769,1.00253 -3.39542,1.1682 -5.1717,2.81343 -6.74295,6.24549 -0.76931,1.6804 -0.85621,1.75695 -1.82017,1.6034 -0.55675,-0.0887 -2.66828,-0.31725 -4.69228,-0.50793 -5.11948,-0.48231 -5.19981,-0.5044 -4.94577,-1.36008 0.658,-2.21629 2.5346,-5.43015 4.09873,-7.01947 2.90655,-2.95336 6.57299,-4.65669 13.00704,-6.04273 3.93228,-0.84709 14.63819,-1.19021 19.50024,-0.62497 8.50974,0.98931 13.76523,3.77541 15.88817,8.42285 l 0.91131,1.99498 0.22056,13.6 c 0.12131,7.48 0.31986,14.66209 0.44121,15.96021 0.25365,2.71321 1.10862,5.4298 2.2532,7.15938 l 0.79439,1.20041 h -5.94253 -5.94254 l -0.6076,-1.3736 c -0.33419,-0.75547 -0.70449,-1.97947 -0.82291,-2.72 -0.11841,-0.74052 -0.26093,-1.3464 -0.31671,-1.3464 -0.0558,0 -1.61817,0.80277 -3.47197,1.78394 -3.8561,2.04092 -7.6001,3.39488 -11.43933,4.13688 -2.55164,0.49314 -10.89525,0.89247 -12.90549,0.61766 z m 14.72,-7.3321 c 3.48016,-0.96873 6.56498,-2.67228 8.69385,-4.80105 1.70962,-1.70955 2.05972,-2.27037 2.6154,-4.18955 0.35287,-1.21868 0.72171,-3.63407 0.81967,-5.36753 0.15924,-2.81784 0.12315,-3.13066 -0.3406,-2.9527 -1.44854,0.55586 -9.13004,1.87893 -15.89269,2.73739 -9.91467,1.25857 -11.27795,1.59968 -13.84152,3.46333 -1.58781,1.1543 -2.37411,2.70694 -2.37411,4.68798 0,1.80217 0.55703,2.95563 2.06797,4.28226 2.69377,2.36516 5.13973,2.95821 11.53203,2.79607 3.16046,-0.0802 5.45581,-0.30431 6.72,-0.6562 z M 399.84,80.45556 c -4.43613,-0.61965 -6.09718,-0.94839 -8.32,-1.64665 -8.7429,-2.74641 -14.43929,-8.25647 -16.53365,-15.99282 -0.9248,-3.41604 -0.99348,-10.72306 -0.13178,-14.01615 1.76429,-6.74231 5.55469,-11.26679 12.18544,-14.5454 5.04271,-2.49339 10.17033,-3.5346 17.40674,-3.5346 7.35827,0 13.61114,1.50937 18.70567,4.51534 3.35337,1.97863 7.18057,5.93455 8.63427,8.92466 1.8695,3.84542 2.28211,5.88847 2.26201,11.2 -0.031,8.20891 -1.51356,12.34689 -6.01875,16.8 -2.97549,2.94108 -5.11472,4.29402 -9.2536,5.85235 -4.35017,1.6379 -7.99475,2.30802 -13.33635,2.45216 -2.552,0.0689 -5.072,0.0649 -5.6,-0.009 z m 9.27082,-7.33928 c 4.76659,-1.0097 9.55008,-4.25682 11.47148,-7.78706 2.74525,-5.04392 2.87853,-13.54432 0.29581,-18.86695 -1.8263,-3.76377 -6.18435,-6.95993 -11.27811,-8.27129 -2.5151,-0.64749 -7.69414,-0.72002 -10.4,-0.14565 -4.99104,1.05946 -9.69183,4.41609 -11.6686,8.33204 -2.66259,5.27454 -2.56918,13.85232 0.20631,18.95185 1.88902,3.47077 6.69499,6.7696 11.32533,7.77376 2.72928,0.59188 7.2879,0.59791 10.04778,0.0133 z m 53.61392,7.15526 c -9.53677,-0.99522 -16.08256,-4.73318 -18.96791,-10.8316 -1.48832,-3.14566 -1.77891,-4.47506 -0.98227,-4.49369 0.32198,-0.007 2.74544,-0.2771 5.38544,-0.59904 2.64,-0.32193 4.908,-0.52328 5.04,-0.44742 0.132,0.0759 0.24,0.38915 0.24,0.6962 0,1.08218 1.64765,3.84637 3.07933,5.16604 3.10726,2.86418 7.57497,4.0173 14.52067,3.7478 3.14438,-0.12201 4.90413,-0.35263 6.46653,-0.84745 3.70893,-1.17467 6.33347,-3.72966 6.33347,-6.16566 0,-3.71716 -2.08378,-4.72847 -15.04,-7.29932 -16.27274,-3.22893 -20.92026,-5.19762 -23.51213,-9.95977 -0.75248,-1.38254 -0.9567,-2.20731 -1.06704,-4.30947 -0.12137,-2.31262 -0.0397,-2.81527 0.73955,-4.55168 0.96797,-2.15691 3.49056,-4.80669 5.91962,-6.21803 2.11594,-1.22941 5.88653,-2.40124 9.63866,-2.99553 4.46124,-0.70659 13.90547,-0.46117 17.88134,0.46467 5.58054,1.29951 9.33693,3.16255 11.36378,5.63606 1.34825,1.64537 2.77235,4.68095 2.83196,6.03658 l 0.0443,1.00667 -3.84,0.37799 c -2.112,0.2079 -4.524,0.45605 -5.36,0.55144 -1.21194,0.1383 -1.52,0.0766 -1.52,-0.30422 0,-1.87237 -3.10227,-5.13045 -5.87178,-6.16665 -3.92505,-1.46855 -11.54118,-1.57595 -16.05075,-0.22634 -3.20368,0.95878 -5.55917,3.51951 -5.08544,5.52853 0.59082,2.50557 3.18714,3.86363 10.23479,5.35351 17.00486,3.59487 20.19308,4.40595 23.36265,5.94347 2.69123,1.30548 4.72231,3.18723 5.79255,5.36669 0.77065,1.56932 0.89798,2.21527 0.89798,4.55535 0,2.43266 -0.11277,2.95579 -1.04566,4.85077 -3.79882,7.71652 -16.2194,11.72138 -31.4296,10.1341 z M 336.96001,55.51994 v -23.84 h 5.12 5.12 v 3.4018 3.4018 l 1.31763,-1.65487 c 1.82496,-2.29207 4.42531,-4.33148 6.60442,-5.17975 3.85753,-1.50164 10.79219,-1.07348 15.52467,0.95851 l 1.52672,0.65553 -1.94317,3.87641 c -1.57648,3.14487 -2.04576,3.83682 -2.48672,3.66666 -4.4208,-1.70595 -9.41894,-1.88134 -12.54355,-0.44016 -3.45072,1.59159 -4.94195,3.49125 -6.13997,7.82164 -0.6624,2.39425 -0.70733,3.31378 -0.82361,16.85243 l -0.12298,14.32 h -5.57674 -5.5767 z"
       id="path224" />
  </g>
</svg>
